<svg width="286" height="27" viewBox="0 0 286 27" fill="none" xmlns="http://www.w3.org/2000/svg">
<path d="M11.96 18.12C12.056 18.504 12.104 18.984 12.104 19.56C12.104 20.112 12.056 20.592 11.96 21H6.92C6.824 20.592 6.776 20.112 6.776 19.56C6.776 18.984 6.824 18.504 6.92 18.12H5.48C5.384 17.712 5.336 17.232 5.336 16.68C5.336 16.104 5.384 15.624 5.48 15.24H3.32C3.416 15.624 3.464 16.104 3.464 16.68C3.464 17.232 3.416 17.712 3.32 18.12C3.416 18.504 3.464 18.984 3.464 19.56C3.464 20.112 3.416 20.592 3.32 21H0.44C0.344 20.592 0.296 20.112 0.296 19.56C0.296 18.984 0.344 18.504 0.44 18.12C0.344 17.712 0.296 17.232 0.296 16.68C0.296 16.104 0.344 15.624 0.44 15.24C0.344 14.832 0.296 14.352 0.296 13.8C0.296 13.224 0.344 12.744 0.44 12.36C0.344 11.952 0.296 11.472 0.296 10.92C0.296 10.344 0.344 9.864 0.44 9.48C0.344 9.072 0.296 8.592 0.296 8.04C0.296 7.464 0.344 6.984 0.44 6.6C0.344 6.192 0.296 5.712 0.296 5.16C0.296 4.584 0.344 4.104 0.44 3.72C0.344 3.312 0.296 2.832 0.296 2.28C0.296 1.704 0.344 1.224 0.44 0.84H3.32C3.416 1.224 3.464 1.704 3.464 2.28C3.464 2.832 3.416 3.312 3.32 3.72C3.416 4.104 3.464 4.584 3.464 5.16C3.464 5.712 3.416 6.192 3.32 6.6C3.416 6.984 3.464 7.464 3.464 8.04C3.464 8.592 3.416 9.072 3.32 9.48C3.416 9.864 3.464 10.344 3.464 10.92C3.464 11.472 3.416 11.952 3.32 12.36H5.48C5.384 11.952 5.336 11.472 5.336 10.92C5.336 10.344 5.384 9.864 5.48 9.48H6.92C6.824 9.072 6.776 8.592 6.776 8.04C6.776 7.464 6.824 6.984 6.92 6.6H11.24C11.336 6.984 11.384 7.464 11.384 8.04C11.384 8.592 11.336 9.072 11.24 9.48H8.36C8.456 9.864 8.504 10.344 8.504 10.92C8.504 11.472 8.456 11.952 8.36 12.36H6.92C7.016 12.744 7.064 13.224 7.064 13.8C7.064 14.352 7.016 14.832 6.92 15.24H8.36C8.456 15.624 8.504 16.104 8.504 16.68C8.504 17.232 8.456 17.712 8.36 18.12H11.96ZM26.3741 9.48C26.4701 9.864 26.5181 10.344 26.5181 10.92C26.5181 11.472 26.4701 11.952 26.3741 12.36H23.4941C23.3981 11.952 23.3501 11.472 23.3501 10.92C23.3501 10.344 23.3981 9.864 23.4941 9.48H20.9741C21.0701 9.864 21.1181 10.344 21.1181 10.92C21.1181 11.472 21.0701 11.952 20.9741 12.36H19.8941C19.9901 12.744 20.0381 13.224 20.0381 13.8C20.0381 14.352 19.9901 14.832 19.8941 15.24C19.9901 15.624 20.0381 16.104 20.0381 16.68C20.0381 17.232 19.9901 17.712 19.8941 18.12H22.0541C22.1501 18.504 22.1981 18.984 22.1981 19.56C22.1981 20.112 22.1501 20.592 22.0541 21H14.8541C14.7581 20.592 14.7101 20.112 14.7101 19.56C14.7101 18.984 14.7581 18.504 14.8541 18.12H17.0141C16.9181 17.712 16.8701 17.232 16.8701 16.68C16.8701 16.104 16.9181 15.624 17.0141 15.24C16.9181 14.832 16.8701 14.352 16.8701 13.8C16.8701 13.224 16.9181 12.744 17.0141 12.36C16.9181 11.952 16.8701 11.472 16.8701 10.92C16.8701 10.344 16.9181 9.864 17.0141 9.48H14.8541C14.7581 9.072 14.7101 8.592 14.7101 8.04C14.7101 7.464 14.7581 6.984 14.8541 6.6H18.4541C18.5501 6.984 18.5981 7.464 18.5981 8.04C18.5981 8.592 18.5501 9.072 18.4541 9.48H19.8941C19.7981 9.072 19.7501 8.592 19.7501 8.04C19.7501 7.464 19.7981 6.984 19.8941 6.6H25.2941C25.3901 6.984 25.4381 7.464 25.4381 8.04C25.4381 8.592 25.3901 9.072 25.2941 9.48H26.3741ZM33.5881 3.72C33.4921 3.312 33.4441 2.832 33.4441 2.28C33.4441 1.704 33.4921 1.224 33.5881 0.84H36.4681C36.5641 1.224 36.6121 1.704 36.6121 2.28C36.6121 2.832 36.5641 3.312 36.4681 3.72H33.5881ZM39.3481 18.12C39.4441 18.504 39.4921 18.984 39.4921 19.56C39.4921 20.112 39.4441 20.592 39.3481 21H30.7081C30.6121 20.592 30.5641 20.112 30.5641 19.56C30.5641 18.984 30.6121 18.504 30.7081 18.12H33.5881C33.4921 17.712 33.4441 17.232 33.4441 16.68C33.4441 16.104 33.4921 15.624 33.5881 15.24C33.4921 14.832 33.4441 14.352 33.4441 13.8C33.4441 13.224 33.4921 12.744 33.5881 12.36C33.4921 11.952 33.4441 11.472 33.4441 10.92C33.4441 10.344 33.4921 9.864 33.5881 9.48H31.4281C31.3321 9.072 31.2841 8.592 31.2841 8.04C31.2841 7.464 31.3321 6.984 31.4281 6.6H36.4681C36.5641 6.984 36.6121 7.464 36.6121 8.04C36.6121 8.592 36.5641 9.072 36.4681 9.48C36.5641 9.864 36.6121 10.344 36.6121 10.92C36.6121 11.472 36.5641 11.952 36.4681 12.36C36.5641 12.744 36.6121 13.224 36.6121 13.8C36.6121 14.352 36.5641 14.832 36.4681 15.24C36.5641 15.624 36.6121 16.104 36.6121 16.68C36.6121 17.232 36.5641 17.712 36.4681 18.12H39.3481ZM55.3462 8.04C55.3462 8.592 55.2982 9.072 55.2022 9.48H54.1222C54.2182 9.864 54.2662 10.344 54.2662 10.92C54.2662 11.472 54.2182 11.952 54.1222 12.36H53.0422C53.1382 12.744 53.1862 13.224 53.1862 13.8C53.1862 14.352 53.1382 14.832 53.0422 15.24H52.3222C52.4182 15.624 52.4662 16.104 52.4662 16.68C52.4662 17.232 52.4182 17.712 52.3222 18.12H50.8822C50.9782 18.504 51.0262 18.984 51.0262 19.56C51.0262 20.112 50.9782 20.592 50.8822 21H48.0022C47.9062 20.592 47.8582 20.112 47.8582 19.56C47.8582 18.984 47.9062 18.504 48.0022 18.12H46.5622C46.4662 17.712 46.4182 17.232 46.4182 16.68C46.4182 16.104 46.4662 15.624 46.5622 15.24H45.8422C45.7462 14.832 45.6982 14.352 45.6982 13.8C45.6982 13.224 45.7462 12.744 45.8422 12.36H44.7622C44.6662 11.952 44.6182 11.472 44.6182 10.92C44.6182 10.344 44.6662 9.864 44.7622 9.48H43.6822C43.5862 9.072 43.5382 8.592 43.5382 8.04C43.5382 7.464 43.5862 6.984 43.6822 6.6H46.5622C46.6582 6.984 46.7062 7.464 46.7062 8.04C46.7062 8.592 46.6582 9.072 46.5622 9.48H47.6422C47.7382 9.864 47.7862 10.344 47.7862 10.92C47.7862 11.472 47.7382 11.952 47.6422 12.36H48.7222C48.8182 12.744 48.8662 13.224 48.8662 13.8C48.8662 14.352 48.8182 14.832 48.7222 15.24H50.1622C50.0662 14.832 50.0182 14.352 50.0182 13.8C50.0182 13.224 50.0662 12.744 50.1622 12.36H51.2422C51.1462 11.952 51.0982 11.472 51.0982 10.92C51.0982 10.344 51.1462 9.864 51.2422 9.48H52.3222C52.2262 9.072 52.1782 8.592 52.1782 8.04C52.1782 7.464 52.2262 6.984 52.3222 6.6H55.2022C55.2982 6.984 55.3462 7.464 55.3462 8.04ZM69.6163 15.24C69.7123 15.624 69.7603 16.104 69.7603 16.68C69.7603 17.232 69.7123 17.712 69.6163 18.12H68.1763C68.2723 18.504 68.3203 18.984 68.3203 19.56C68.3203 20.112 68.2723 20.592 68.1763 21H60.9763C60.8803 20.592 60.8323 20.112 60.8323 19.56C60.8323 18.984 60.8803 18.504 60.9763 18.12H59.5363C59.4403 17.712 59.3923 17.232 59.3923 16.68C59.3923 16.104 59.4403 15.624 59.5363 15.24H58.0963C58.0003 14.832 57.9523 14.352 57.9523 13.8C57.9523 13.224 58.0003 12.744 58.0963 12.36H59.5363C59.4403 11.952 59.3923 11.472 59.3923 10.92C59.3923 10.344 59.4403 9.864 59.5363 9.48H60.9763C60.8803 9.072 60.8323 8.592 60.8323 8.04C60.8323 7.464 60.8803 6.984 60.9763 6.6H68.1763C68.2723 6.984 68.3203 7.464 68.3203 8.04C68.3203 8.592 68.2723 9.072 68.1763 9.48H69.6163C69.7123 9.864 69.7603 10.344 69.7603 10.92C69.7603 11.472 69.7123 11.952 69.6163 12.36H66.7363C66.6403 11.952 66.5923 11.472 66.5923 10.92C66.5923 10.344 66.6403 9.864 66.7363 9.48H62.4163C62.5123 9.864 62.5603 10.344 62.5603 10.92C62.5603 11.472 62.5123 11.952 62.4163 12.36H60.9763C61.0723 12.744 61.1203 13.224 61.1203 13.8C61.1203 14.352 61.0723 14.832 60.9763 15.24H62.4163C62.5123 15.624 62.5603 16.104 62.5603 16.68C62.5603 17.232 62.5123 17.712 62.4163 18.12H66.7363C66.6403 17.712 66.5923 17.232 66.5923 16.68C66.5923 16.104 66.6403 15.624 66.7363 15.24H69.6163ZM75.5343 8.04C75.5343 8.592 75.4863 9.072 75.3903 9.48H76.4703C76.5663 9.864 76.6143 10.344 76.6143 10.92C76.6143 11.472 76.5663 11.952 76.4703 12.36H75.3903C75.4863 12.744 75.5343 13.224 75.5343 13.8C75.5343 14.352 75.4863 14.832 75.3903 15.24C75.4863 15.624 75.5343 16.104 75.5343 16.68C75.5343 17.232 75.4863 17.712 75.3903 18.12C75.4863 18.504 75.5343 18.984 75.5343 19.56C75.5343 20.112 75.4863 20.592 75.3903 21H72.5103C72.4143 20.592 72.3663 20.112 72.3663 19.56C72.3663 18.984 72.4143 18.504 72.5103 18.12C72.4143 17.712 72.3663 17.232 72.3663 16.68C72.3663 16.104 72.4143 15.624 72.5103 15.24C72.4143 14.832 72.3663 14.352 72.3663 13.8C72.3663 13.224 72.4143 12.744 72.5103 12.36C72.4143 11.952 72.3663 11.472 72.3663 10.92C72.3663 10.344 72.4143 9.864 72.5103 9.48C72.4143 9.072 72.3663 8.592 72.3663 8.04C72.3663 7.464 72.4143 6.984 72.5103 6.6C72.4143 6.192 72.3663 5.712 72.3663 5.16C72.3663 4.584 72.4143 4.104 72.5103 3.72C72.4143 3.312 72.3663 2.832 72.3663 2.28C72.3663 1.704 72.4143 1.224 72.5103 0.84H75.3903C75.4863 1.224 75.5343 1.704 75.5343 2.28C75.5343 2.832 75.4863 3.312 75.3903 3.72C75.4863 4.104 75.5343 4.584 75.5343 5.16C75.5343 5.712 75.4863 6.192 75.3903 6.6C75.4863 6.984 75.5343 7.464 75.5343 8.04ZM84.0303 12.36C84.1263 12.744 84.1743 13.224 84.1743 13.8C84.1743 14.352 84.1263 14.832 84.0303 15.24C84.1263 15.624 84.1743 16.104 84.1743 16.68C84.1743 17.232 84.1263 17.712 84.0303 18.12C84.1263 18.504 84.1743 18.984 84.1743 19.56C84.1743 20.112 84.1263 20.592 84.0303 21H81.1503C81.0543 20.592 81.0063 20.112 81.0063 19.56C81.0063 18.984 81.0543 18.504 81.1503 18.12C81.0543 17.712 81.0063 17.232 81.0063 16.68C81.0063 16.104 81.0543 15.624 81.1503 15.24C81.0543 14.832 81.0063 14.352 81.0063 13.8C81.0063 13.224 81.0543 12.744 81.1503 12.36C81.0543 11.952 81.0063 11.472 81.0063 10.92C81.0063 10.344 81.0543 9.864 81.1503 9.48H76.4703C76.3743 9.072 76.3263 8.592 76.3263 8.04C76.3263 7.464 76.3743 6.984 76.4703 6.6H82.2303C82.3263 6.984 82.3743 7.464 82.3743 8.04C82.3743 8.592 82.3263 9.072 82.2303 9.48H84.0303C84.1263 9.864 84.1743 10.344 84.1743 10.92C84.1743 11.472 84.1263 11.952 84.0303 12.36ZM98.5884 10.92C98.5884 11.472 98.5404 11.952 98.4444 12.36C98.5404 12.744 98.5884 13.224 98.5884 13.8C98.5884 14.352 98.5404 14.832 98.4444 15.24H90.8844C90.9804 15.624 91.0284 16.104 91.0284 16.68C91.0284 17.232 90.9804 17.712 90.8844 18.12H97.0044C97.1004 18.504 97.1484 18.984 97.1484 19.56C97.1484 20.112 97.1004 20.592 97.0044 21H89.8044C89.7084 20.592 89.6604 20.112 89.6604 19.56C89.6604 18.984 89.7084 18.504 89.8044 18.12H88.0044C87.9084 17.712 87.8604 17.232 87.8604 16.68C87.8604 16.104 87.9084 15.624 88.0044 15.24H86.9244C86.8284 14.832 86.7804 14.352 86.7804 13.8C86.7804 13.224 86.8284 12.744 86.9244 12.36H88.0044C87.9084 11.952 87.8604 11.472 87.8604 10.92C87.8604 10.344 87.9084 9.864 88.0044 9.48H89.8044C89.7084 9.072 89.6604 8.592 89.6604 8.04C89.6604 7.464 89.7084 6.984 89.8044 6.6H97.0044C97.1004 6.984 97.1484 7.464 97.1484 8.04C97.1484 8.592 97.1004 9.072 97.0044 9.48H98.4444C98.5404 9.864 98.5884 10.344 98.5884 10.92ZM95.5644 12.36C95.4684 11.952 95.4204 11.472 95.4204 10.92C95.4204 10.344 95.4684 9.864 95.5644 9.48H90.8844C90.9804 9.864 91.0284 10.344 91.0284 10.92C91.0284 11.472 90.9804 11.952 90.8844 12.36H95.5644ZM104.002 8.04C104.002 8.592 103.954 9.072 103.858 9.48H105.298C105.394 9.864 105.442 10.344 105.442 10.92C105.442 11.472 105.394 11.952 105.298 12.36H104.218C104.314 12.744 104.362 13.224 104.362 13.8C104.362 14.352 104.314 14.832 104.218 15.24C104.314 15.624 104.362 16.104 104.362 16.68C104.362 17.232 104.314 17.712 104.218 18.12C104.314 18.504 104.362 18.984 104.362 19.56C104.362 20.112 104.314 20.592 104.218 21H101.338C101.242 20.592 101.194 20.112 101.194 19.56C101.194 18.984 101.242 18.504 101.338 18.12C101.242 17.712 101.194 17.232 101.194 16.68C101.194 16.104 101.242 15.624 101.338 15.24C101.242 14.832 101.194 14.352 101.194 13.8C101.194 13.224 101.242 12.744 101.338 12.36C101.242 11.952 101.194 11.472 101.194 10.92C101.194 10.344 101.242 9.864 101.338 9.48C101.242 9.072 101.194 8.592 101.194 8.04C101.194 7.464 101.242 6.984 101.338 6.6H103.858C103.954 6.984 104.002 7.464 104.002 8.04ZM112.858 12.36C112.954 12.744 113.002 13.224 113.002 13.8C113.002 14.352 112.954 14.832 112.858 15.24C112.954 15.624 113.002 16.104 113.002 16.68C113.002 17.232 112.954 17.712 112.858 18.12C112.954 18.504 113.002 18.984 113.002 19.56C113.002 20.112 112.954 20.592 112.858 21H109.978C109.882 20.592 109.834 20.112 109.834 19.56C109.834 18.984 109.882 18.504 109.978 18.12C109.882 17.712 109.834 17.232 109.834 16.68C109.834 16.104 109.882 15.624 109.978 15.24C109.882 14.832 109.834 14.352 109.834 13.8C109.834 13.224 109.882 12.744 109.978 12.36C109.882 11.952 109.834 11.472 109.834 10.92C109.834 10.344 109.882 9.864 109.978 9.48H105.298C105.202 9.072 105.154 8.592 105.154 8.04C105.154 7.464 105.202 6.984 105.298 6.6H111.058C111.154 6.984 111.202 7.464 111.202 8.04C111.202 8.592 111.154 9.072 111.058 9.48H112.858C112.954 9.864 113.002 10.344 113.002 10.92C113.002 11.472 112.954 11.952 112.858 12.36ZM127.273 18.12C127.369 18.504 127.417 18.984 127.417 19.56C127.417 20.112 127.369 20.592 127.273 21H122.233C122.137 20.592 122.089 20.112 122.089 19.56C122.089 18.984 122.137 18.504 122.233 18.12H120.793C120.697 17.712 120.649 17.232 120.649 16.68C120.649 16.104 120.697 15.624 120.793 15.24H118.633C118.729 15.624 118.777 16.104 118.777 16.68C118.777 17.232 118.729 17.712 118.633 18.12C118.729 18.504 118.777 18.984 118.777 19.56C118.777 20.112 118.729 20.592 118.633 21H115.753C115.657 20.592 115.609 20.112 115.609 19.56C115.609 18.984 115.657 18.504 115.753 18.12C115.657 17.712 115.609 17.232 115.609 16.68C115.609 16.104 115.657 15.624 115.753 15.24C115.657 14.832 115.609 14.352 115.609 13.8C115.609 13.224 115.657 12.744 115.753 12.36C115.657 11.952 115.609 11.472 115.609 10.92C115.609 10.344 115.657 9.864 115.753 9.48C115.657 9.072 115.609 8.592 115.609 8.04C115.609 7.464 115.657 6.984 115.753 6.6C115.657 6.192 115.609 5.712 115.609 5.16C115.609 4.584 115.657 4.104 115.753 3.72C115.657 3.312 115.609 2.832 115.609 2.28C115.609 1.704 115.657 1.224 115.753 0.84H118.633C118.729 1.224 118.777 1.704 118.777 2.28C118.777 2.832 118.729 3.312 118.633 3.72C118.729 4.104 118.777 4.584 118.777 5.16C118.777 5.712 118.729 6.192 118.633 6.6C118.729 6.984 118.777 7.464 118.777 8.04C118.777 8.592 118.729 9.072 118.633 9.48C118.729 9.864 118.777 10.344 118.777 10.92C118.777 11.472 118.729 11.952 118.633 12.36H120.793C120.697 11.952 120.649 11.472 120.649 10.92C120.649 10.344 120.697 9.864 120.793 9.48H122.233C122.137 9.072 122.089 8.592 122.089 8.04C122.089 7.464 122.137 6.984 122.233 6.6H126.553C126.649 6.984 126.697 7.464 126.697 8.04C126.697 8.592 126.649 9.072 126.553 9.48H123.673C123.769 9.864 123.816 10.344 123.816 10.92C123.816 11.472 123.769 11.952 123.673 12.36H122.233C122.329 12.744 122.377 13.224 122.377 13.8C122.377 14.352 122.329 14.832 122.233 15.24H123.673C123.769 15.624 123.816 16.104 123.816 16.68C123.816 17.232 123.769 17.712 123.673 18.12H127.273ZM141.831 13.8C141.831 14.352 141.783 14.832 141.687 15.24H140.607C140.703 15.624 140.751 16.104 140.751 16.68C140.751 17.232 140.703 17.712 140.607 18.12H138.807C138.903 18.504 138.951 18.984 138.951 19.56C138.951 20.112 138.903 20.592 138.807 21H133.047C132.951 20.592 132.903 20.112 132.903 19.56C132.903 18.984 132.951 18.504 133.047 18.12H131.247C131.151 17.712 131.103 17.232 131.103 16.68C131.103 16.104 131.151 15.624 131.247 15.24H130.167C130.071 14.832 130.023 14.352 130.023 13.8C130.023 13.224 130.071 12.744 130.167 12.36H131.247C131.151 11.952 131.103 11.472 131.103 10.92C131.103 10.344 131.151 9.864 131.247 9.48H133.047C132.951 9.072 132.903 8.592 132.903 8.04C132.903 7.464 132.951 6.984 133.047 6.6H138.807C138.903 6.984 138.951 7.464 138.951 8.04C138.951 8.592 138.903 9.072 138.807 9.48H140.607C140.703 9.864 140.751 10.344 140.751 10.92C140.751 11.472 140.703 11.952 140.607 12.36H141.687C141.783 12.744 141.831 13.224 141.831 13.8ZM138.807 15.24C138.711 14.832 138.663 14.352 138.663 13.8C138.663 13.224 138.711 12.744 138.807 12.36H137.727C137.631 11.952 137.583 11.472 137.583 10.92C137.583 10.344 137.631 9.864 137.727 9.48H134.127C134.223 9.864 134.271 10.344 134.271 10.92C134.271 11.472 134.223 11.952 134.127 12.36H133.047C133.143 12.744 133.191 13.224 133.191 13.8C133.191 14.352 133.143 14.832 133.047 15.24H134.127C134.223 15.624 134.271 16.104 134.271 16.68C134.271 17.232 134.223 17.712 134.127 18.12H137.727C137.631 17.712 137.583 17.232 137.583 16.68C137.583 16.104 137.631 15.624 137.727 15.24H138.807Z" fill="black"/>
<path d="M156.245 8.04C156.245 8.592 156.197 9.072 156.101 9.48H155.021C155.117 9.864 155.165 10.344 155.165 10.92C155.165 11.472 155.117 11.952 155.021 12.36H153.941C154.037 12.744 154.085 13.224 154.085 13.8C154.085 14.352 154.037 14.832 153.941 15.24H153.221C153.317 15.624 153.365 16.104 153.365 16.68C153.365 17.232 153.317 17.712 153.221 18.12H151.781C151.877 18.504 151.925 18.984 151.925 19.56C151.925 20.112 151.877 20.592 151.781 21H148.901C148.805 20.592 148.757 20.112 148.757 19.56C148.757 18.984 148.805 18.504 148.901 18.12H147.461C147.365 17.712 147.317 17.232 147.317 16.68C147.317 16.104 147.365 15.624 147.461 15.24H146.741C146.645 14.832 146.597 14.352 146.597 13.8C146.597 13.224 146.645 12.744 146.741 12.36H145.661C145.565 11.952 145.517 11.472 145.517 10.92C145.517 10.344 145.565 9.864 145.661 9.48H144.581C144.485 9.072 144.437 8.592 144.437 8.04C144.437 7.464 144.485 6.984 144.581 6.6H147.461C147.557 6.984 147.605 7.464 147.605 8.04C147.605 8.592 147.557 9.072 147.461 9.48H148.541C148.637 9.864 148.685 10.344 148.685 10.92C148.685 11.472 148.637 11.952 148.541 12.36H149.621C149.717 12.744 149.765 13.224 149.765 13.8C149.765 14.352 149.717 14.832 149.621 15.24H151.061C150.965 14.832 150.917 14.352 150.917 13.8C150.917 13.224 150.965 12.744 151.061 12.36H152.141C152.045 11.952 151.997 11.472 151.997 10.92C151.997 10.344 152.045 9.864 152.141 9.48H153.221C153.125 9.072 153.077 8.592 153.077 8.04C153.077 7.464 153.125 6.984 153.221 6.6H156.101C156.197 6.984 156.245 7.464 156.245 8.04ZM170.659 8.04C170.659 8.592 170.611 9.072 170.515 9.48H169.435C169.531 9.864 169.579 10.344 169.579 10.92C169.579 11.472 169.531 11.952 169.435 12.36H168.355C168.451 12.744 168.499 13.224 168.499 13.8C168.499 14.352 168.451 14.832 168.355 15.24H167.635C167.731 15.624 167.779 16.104 167.779 16.68C167.779 17.232 167.731 17.712 167.635 18.12H166.555C166.651 18.504 166.699 18.984 166.699 19.56C166.699 20.112 166.651 20.592 166.555 21H165.835C165.931 21.384 165.979 21.864 165.979 22.44C165.979 22.992 165.931 23.472 165.835 23.88H164.395C164.491 24.264 164.539 24.744 164.539 25.32C164.539 25.872 164.491 26.352 164.395 26.76H160.075C159.979 26.352 159.931 25.872 159.931 25.32C159.931 24.744 159.979 24.264 160.075 23.88H162.955C162.859 23.472 162.811 22.992 162.811 22.44C162.811 21.864 162.859 21.384 162.955 21C162.859 20.592 162.811 20.112 162.811 19.56C162.811 18.984 162.859 18.504 162.955 18.12H161.515C161.419 17.712 161.371 17.232 161.371 16.68C161.371 16.104 161.419 15.624 161.515 15.24H160.795C160.699 14.832 160.651 14.352 160.651 13.8C160.651 13.224 160.699 12.744 160.795 12.36H159.715C159.619 11.952 159.571 11.472 159.571 10.92C159.571 10.344 159.619 9.864 159.715 9.48H158.635C158.539 9.072 158.491 8.592 158.491 8.04C158.491 7.464 158.539 6.984 158.635 6.6H161.515C161.611 6.984 161.659 7.464 161.659 8.04C161.659 8.592 161.611 9.072 161.515 9.48H162.595C162.691 9.864 162.739 10.344 162.739 10.92C162.739 11.472 162.691 11.952 162.595 12.36H163.675C163.771 12.744 163.819 13.224 163.819 13.8C163.819 14.352 163.771 14.832 163.675 15.24C163.771 15.624 163.819 16.104 163.819 16.68C163.819 17.232 163.771 17.712 163.675 18.12H164.755C164.659 17.712 164.611 17.232 164.611 16.68C164.611 16.104 164.659 15.624 164.755 15.24H165.475C165.379 14.832 165.331 14.352 165.331 13.8C165.331 13.224 165.379 12.744 165.475 12.36H166.555C166.459 11.952 166.411 11.472 166.411 10.92C166.411 10.344 166.459 9.864 166.555 9.48H167.635C167.539 9.072 167.491 8.592 167.491 8.04C167.491 7.464 167.539 6.984 167.635 6.6H170.515C170.611 6.984 170.659 7.464 170.659 8.04ZM184.929 18.12C185.025 18.504 185.073 18.984 185.073 19.56C185.073 20.112 185.025 20.592 184.929 21H182.049C181.953 20.592 181.905 20.112 181.905 19.56C181.905 18.984 181.953 18.504 182.049 18.12H180.609C180.513 17.712 180.465 17.232 180.465 16.68C180.465 16.104 180.513 15.624 180.609 15.24H176.289C176.385 15.624 176.433 16.104 176.433 16.68C176.433 17.232 176.385 17.712 176.289 18.12H180.609C180.705 18.504 180.753 18.984 180.753 19.56C180.753 20.112 180.705 20.592 180.609 21H174.849C174.753 20.592 174.705 20.112 174.705 19.56C174.705 18.984 174.753 18.504 174.849 18.12H173.409C173.313 17.712 173.265 17.232 173.265 16.68C173.265 16.104 173.313 15.624 173.409 15.24H174.849C174.753 14.832 174.705 14.352 174.705 13.8C174.705 13.224 174.753 12.744 174.849 12.36H180.609C180.513 11.952 180.465 11.472 180.465 10.92C180.465 10.344 180.513 9.864 180.609 9.48H175.569C175.473 9.072 175.425 8.592 175.425 8.04C175.425 7.464 175.473 6.984 175.569 6.6H182.049C182.145 6.984 182.193 7.464 182.193 8.04C182.193 8.592 182.145 9.072 182.049 9.48H183.489C183.585 9.864 183.633 10.344 183.633 10.92C183.633 11.472 183.585 11.952 183.489 12.36C183.585 12.744 183.633 13.224 183.633 13.8C183.633 14.352 183.585 14.832 183.489 15.24C183.585 15.624 183.633 16.104 183.633 16.68C183.633 17.232 183.585 17.712 183.489 18.12H184.929ZM199.343 15.24C199.439 15.624 199.487 16.104 199.487 16.68C199.487 17.232 199.439 17.712 199.343 18.12H197.903C197.999 18.504 198.047 18.984 198.047 19.56C198.047 20.112 197.999 20.592 197.903 21H190.703C190.607 20.592 190.559 20.112 190.559 19.56C190.559 18.984 190.607 18.504 190.703 18.12H189.263C189.167 17.712 189.119 17.232 189.119 16.68C189.119 16.104 189.167 15.624 189.263 15.24H187.823C187.727 14.832 187.679 14.352 187.679 13.8C187.679 13.224 187.727 12.744 187.823 12.36H189.263C189.167 11.952 189.119 11.472 189.119 10.92C189.119 10.344 189.167 9.864 189.263 9.48H190.703C190.607 9.072 190.559 8.592 190.559 8.04C190.559 7.464 190.607 6.984 190.703 6.6H197.903C197.999 6.984 198.047 7.464 198.047 8.04C198.047 8.592 197.999 9.072 197.903 9.48H199.343C199.439 9.864 199.487 10.344 199.487 10.92C199.487 11.472 199.439 11.952 199.343 12.36H196.463C196.367 11.952 196.319 11.472 196.319 10.92C196.319 10.344 196.367 9.864 196.463 9.48H192.143C192.239 9.864 192.287 10.344 192.287 10.92C192.287 11.472 192.239 11.952 192.143 12.36H190.703C190.799 12.744 190.847 13.224 190.847 13.8C190.847 14.352 190.799 14.832 190.703 15.24H192.143C192.239 15.624 192.287 16.104 192.287 16.68C192.287 17.232 192.239 17.712 192.143 18.12H196.463C196.367 17.712 196.319 17.232 196.319 16.68C196.319 16.104 196.367 15.624 196.463 15.24H199.343ZM205.261 8.04C205.261 8.592 205.213 9.072 205.117 9.48H206.197C206.293 9.864 206.341 10.344 206.341 10.92C206.341 11.472 206.293 11.952 206.197 12.36H205.117C205.213 12.744 205.261 13.224 205.261 13.8C205.261 14.352 205.213 14.832 205.117 15.24C205.213 15.624 205.261 16.104 205.261 16.68C205.261 17.232 205.213 17.712 205.117 18.12C205.213 18.504 205.261 18.984 205.261 19.56C205.261 20.112 205.213 20.592 205.117 21H202.237C202.141 20.592 202.093 20.112 202.093 19.56C202.093 18.984 202.141 18.504 202.237 18.12C202.141 17.712 202.093 17.232 202.093 16.68C202.093 16.104 202.141 15.624 202.237 15.24C202.141 14.832 202.093 14.352 202.093 13.8C202.093 13.224 202.141 12.744 202.237 12.36C202.141 11.952 202.093 11.472 202.093 10.92C202.093 10.344 202.141 9.864 202.237 9.48C202.141 9.072 202.093 8.592 202.093 8.04C202.093 7.464 202.141 6.984 202.237 6.6C202.141 6.192 202.093 5.712 202.093 5.16C202.093 4.584 202.141 4.104 202.237 3.72C202.141 3.312 202.093 2.832 202.093 2.28C202.093 1.704 202.141 1.224 202.237 0.84H205.117C205.213 1.224 205.261 1.704 205.261 2.28C205.261 2.832 205.213 3.312 205.117 3.72C205.213 4.104 205.261 4.584 205.261 5.16C205.261 5.712 205.213 6.192 205.117 6.6C205.213 6.984 205.261 7.464 205.261 8.04ZM213.757 12.36C213.853 12.744 213.901 13.224 213.901 13.8C213.901 14.352 213.853 14.832 213.757 15.24C213.853 15.624 213.901 16.104 213.901 16.68C213.901 17.232 213.853 17.712 213.757 18.12C213.853 18.504 213.901 18.984 213.901 19.56C213.901 20.112 213.853 20.592 213.757 21H210.877C210.781 20.592 210.733 20.112 210.733 19.56C210.733 18.984 210.781 18.504 210.877 18.12C210.781 17.712 210.733 17.232 210.733 16.68C210.733 16.104 210.781 15.624 210.877 15.24C210.781 14.832 210.733 14.352 210.733 13.8C210.733 13.224 210.781 12.744 210.877 12.36C210.781 11.952 210.733 11.472 210.733 10.92C210.733 10.344 210.781 9.864 210.877 9.48H206.197C206.101 9.072 206.053 8.592 206.053 8.04C206.053 7.464 206.101 6.984 206.197 6.6H211.957C212.053 6.984 212.101 7.464 212.101 8.04C212.101 8.592 212.053 9.072 211.957 9.48H213.757C213.853 9.864 213.901 10.344 213.901 10.92C213.901 11.472 213.853 11.952 213.757 12.36ZM228.315 10.92C228.315 11.472 228.267 11.952 228.171 12.36C228.267 12.744 228.315 13.224 228.315 13.8C228.315 14.352 228.267 14.832 228.171 15.24H220.611C220.707 15.624 220.755 16.104 220.755 16.68C220.755 17.232 220.707 17.712 220.611 18.12H226.731C226.827 18.504 226.875 18.984 226.875 19.56C226.875 20.112 226.827 20.592 226.731 21H219.531C219.435 20.592 219.387 20.112 219.387 19.56C219.387 18.984 219.435 18.504 219.531 18.12H217.731C217.635 17.712 217.587 17.232 217.587 16.68C217.587 16.104 217.635 15.624 217.731 15.24H216.651C216.555 14.832 216.507 14.352 216.507 13.8C216.507 13.224 216.555 12.744 216.651 12.36H217.731C217.635 11.952 217.587 11.472 217.587 10.92C217.587 10.344 217.635 9.864 217.731 9.48H219.531C219.435 9.072 219.387 8.592 219.387 8.04C219.387 7.464 219.435 6.984 219.531 6.6H226.731C226.827 6.984 226.875 7.464 226.875 8.04C226.875 8.592 226.827 9.072 226.731 9.48H228.171C228.267 9.864 228.315 10.344 228.315 10.92ZM225.291 12.36C225.195 11.952 225.147 11.472 225.147 10.92C225.147 10.344 225.195 9.864 225.291 9.48H220.611C220.707 9.864 220.755 10.344 220.755 10.92C220.755 11.472 220.707 11.952 220.611 12.36H225.291ZM242.009 16.68C242.009 17.232 241.961 17.712 241.865 18.12H240.425C240.521 18.504 240.569 18.984 240.569 19.56C240.569 20.112 240.521 20.592 240.425 21H232.505C232.409 20.592 232.361 20.112 232.361 19.56C232.361 18.984 232.409 18.504 232.505 18.12H238.985C238.889 17.712 238.841 17.232 238.841 16.68C238.841 16.104 238.889 15.624 238.985 15.24H233.225C233.129 14.832 233.081 14.352 233.081 13.8C233.081 13.224 233.129 12.744 233.225 12.36H231.785C231.689 11.952 231.641 11.472 231.641 10.92C231.641 10.344 231.689 9.864 231.785 9.48H233.225C233.129 9.072 233.081 8.592 233.081 8.04C233.081 7.464 233.129 6.984 233.225 6.6H241.145C241.241 6.984 241.289 7.464 241.289 8.04C241.289 8.592 241.241 9.072 241.145 9.48H234.665C234.761 9.864 234.809 10.344 234.809 10.92C234.809 11.472 234.761 11.952 234.665 12.36H240.425C240.521 12.744 240.569 13.224 240.569 13.8C240.569 14.352 240.521 14.832 240.425 15.24H241.865C241.961 15.624 242.009 16.104 242.009 16.68ZM255.559 18.12C255.655 18.504 255.703 18.984 255.703 19.56C255.703 20.112 255.655 20.592 255.559 21H246.919C246.823 20.592 246.775 20.112 246.775 19.56C246.775 18.984 246.823 18.504 246.919 18.12H249.799C249.703 17.712 249.655 17.232 249.655 16.68C249.655 16.104 249.703 15.624 249.799 15.24C249.703 14.832 249.655 14.352 249.655 13.8C249.655 13.224 249.703 12.744 249.799 12.36C249.703 11.952 249.655 11.472 249.655 10.92C249.655 10.344 249.703 9.864 249.799 9.48C249.703 9.072 249.655 8.592 249.655 8.04C249.655 7.464 249.703 6.984 249.799 6.6C249.703 6.192 249.655 5.712 249.655 5.16C249.655 4.584 249.703 4.104 249.799 3.72H247.639C247.543 3.312 247.495 2.832 247.495 2.28C247.495 1.704 247.543 1.224 247.639 0.84H252.679C252.775 1.224 252.823 1.704 252.823 2.28C252.823 2.832 252.775 3.312 252.679 3.72C252.775 4.104 252.823 4.584 252.823 5.16C252.823 5.712 252.775 6.192 252.679 6.6C252.775 6.984 252.823 7.464 252.823 8.04C252.823 8.592 252.775 9.072 252.679 9.48C252.775 9.864 252.823 10.344 252.823 10.92C252.823 11.472 252.775 11.952 252.679 12.36C252.775 12.744 252.823 13.224 252.823 13.8C252.823 14.352 252.775 14.832 252.679 15.24C252.775 15.624 252.823 16.104 252.823 16.68C252.823 17.232 252.775 17.712 252.679 18.12H255.559ZM271.413 18.12C271.509 18.504 271.557 18.984 271.557 19.56C271.557 20.112 271.509 20.592 271.413 21H268.533C268.437 20.592 268.389 20.112 268.389 19.56C268.389 18.984 268.437 18.504 268.533 18.12H267.093C266.997 17.712 266.949 17.232 266.949 16.68C266.949 16.104 266.997 15.624 267.093 15.24H262.773C262.869 15.624 262.917 16.104 262.917 16.68C262.917 17.232 262.869 17.712 262.773 18.12H267.093C267.189 18.504 267.237 18.984 267.237 19.56C267.237 20.112 267.189 20.592 267.093 21H261.333C261.237 20.592 261.189 20.112 261.189 19.56C261.189 18.984 261.237 18.504 261.333 18.12H259.893C259.797 17.712 259.749 17.232 259.749 16.68C259.749 16.104 259.797 15.624 259.893 15.24H261.333C261.237 14.832 261.189 14.352 261.189 13.8C261.189 13.224 261.237 12.744 261.333 12.36H267.093C266.997 11.952 266.949 11.472 266.949 10.92C266.949 10.344 266.997 9.864 267.093 9.48H262.053C261.957 9.072 261.909 8.592 261.909 8.04C261.909 7.464 261.957 6.984 262.053 6.6H268.533C268.629 6.984 268.677 7.464 268.677 8.04C268.677 8.592 268.629 9.072 268.533 9.48H269.973C270.069 9.864 270.117 10.344 270.117 10.92C270.117 11.472 270.069 11.952 269.973 12.36C270.069 12.744 270.117 13.224 270.117 13.8C270.117 14.352 270.069 14.832 269.973 15.24C270.069 15.624 270.117 16.104 270.117 16.68C270.117 17.232 270.069 17.712 269.973 18.12H271.413ZM285.971 8.04C285.971 8.592 285.923 9.072 285.827 9.48H284.747C284.843 9.864 284.891 10.344 284.891 10.92C284.891 11.472 284.843 11.952 284.747 12.36H283.667C283.763 12.744 283.811 13.224 283.811 13.8C283.811 14.352 283.763 14.832 283.667 15.24H282.947C283.043 15.624 283.091 16.104 283.091 16.68C283.091 17.232 283.043 17.712 282.947 18.12H281.507C281.603 18.504 281.651 18.984 281.651 19.56C281.651 20.112 281.603 20.592 281.507 21H278.627C278.531 20.592 278.483 20.112 278.483 19.56C278.483 18.984 278.531 18.504 278.627 18.12H277.187C277.091 17.712 277.043 17.232 277.043 16.68C277.043 16.104 277.091 15.624 277.187 15.24H276.467C276.371 14.832 276.323 14.352 276.323 13.8C276.323 13.224 276.371 12.744 276.467 12.36H275.387C275.291 11.952 275.243 11.472 275.243 10.92C275.243 10.344 275.291 9.864 275.387 9.48H274.307C274.211 9.072 274.163 8.592 274.163 8.04C274.163 7.464 274.211 6.984 274.307 6.6H277.187C277.283 6.984 277.331 7.464 277.331 8.04C277.331 8.592 277.283 9.072 277.187 9.48H278.267C278.363 9.864 278.411 10.344 278.411 10.92C278.411 11.472 278.363 11.952 278.267 12.36H279.347C279.443 12.744 279.491 13.224 279.491 13.8C279.491 14.352 279.443 14.832 279.347 15.24H280.787C280.691 14.832 280.643 14.352 280.643 13.8C280.643 13.224 280.691 12.744 280.787 12.36H281.867C281.771 11.952 281.723 11.472 281.723 10.92C281.723 10.344 281.771 9.864 281.867 9.48H282.947C282.851 9.072 282.803 8.592 282.803 8.04C282.803 7.464 282.851 6.984 282.947 6.6H285.827C285.923 6.984 285.971 7.464 285.971 8.04Z" fill="#8C8C8C"/>
</svg>
